<?xml version="1.0" encoding="UTF-8" standalone="no"?>
<!DOCTYPE svg PUBLIC "-//W3C//DTD SVG 1.1//EN"
 "http://www.w3.org/Graphics/SVG/1.1/DTD/svg11.dtd">
<!-- Generated by graphviz version 2.34.0 (20130907.0228)
 -->
<!-- Title: %3 Pages: 1 -->
<svg width="1713pt" height="416pt"
 viewBox="0.00 0.00 1713.00 416.00" xmlns="http://www.w3.org/2000/svg" xmlns:xlink="http://www.w3.org/1999/xlink">
<g id="graph0" class="graph" transform="scale(1 1) rotate(0) translate(4 412)">
<title>%3</title>
<polygon fill="white" stroke="white" points="-4,4 -4,-412 1709,-412 1709,4 -4,4"/>
<!-- org_liveSense_service_thumbnailGenerator -->
<g id="node1" class="node"><title>org_liveSense_service_thumbnailGenerator</title>
<polygon fill="yellow" stroke="black" points="522,-371 522,-407 744,-407 744,-371 522,-371"/>
<text text-anchor="middle" x="633" y="-396.1" font-family="Arial" font-size="8.00">liveSense :: Service :: Thumbnail generator service</text>
<polyline fill="none" stroke="black" points="522,-389 744,-389 "/>
<text text-anchor="middle" x="633" y="-378.1" font-family="Arial" font-size="8.00">org.liveSense.service.thumbnailGenerator(2&#45;SNAPSHOT)</text>
</g>
<!-- javax_jcr -->
<g id="node2" class="node"><title>javax_jcr</title>
<polygon fill="green" stroke="black" points="164,-297 164,-333 350,-333 350,-297 164,-297"/>
<text text-anchor="middle" x="257" y="-322.1" font-family="Arial" font-size="8.00">Content Repository for JavaTM Technology API</text>
<polyline fill="none" stroke="black" points="164,-315 350,-315 "/>
<text text-anchor="middle" x="257" y="-304.1" font-family="Arial" font-size="8.00">javax.jcr(2.0)</text>
</g>
<!-- org_liveSense_service_thumbnailGenerator&#45;&gt;javax_jcr -->
<g id="edge1" class="edge"><title>org_liveSense_service_thumbnailGenerator&#45;&gt;javax_jcr</title>
<path fill="none" stroke="yellow" d="M543.893,-370.937C487.336,-360.107 414.087,-346.08 355.759,-334.911"/>
<polygon fill="yellow" stroke="yellow" points="356.272,-331.446 345.792,-333.003 354.956,-338.321 356.272,-331.446"/>
</g>
<!-- org_apache_sling_jcr_api -->
<g id="node3" class="node"><title>org_apache_sling_jcr_api</title>
<polygon fill="green" stroke="black" points="0,-297 0,-333 146,-333 146,-297 0,-297"/>
<text text-anchor="middle" x="73" y="-322.1" font-family="Arial" font-size="8.00">Apache Sling Repository API Bundle</text>
<polyline fill="none" stroke="black" points="0,-315 146,-315 "/>
<text text-anchor="middle" x="73" y="-304.1" font-family="Arial" font-size="8.00">org.apache.sling.jcr.api(2.1.0)</text>
</g>
<!-- org_liveSense_service_thumbnailGenerator&#45;&gt;org_apache_sling_jcr_api -->
<g id="edge2" class="edge"><title>org_liveSense_service_thumbnailGenerator&#45;&gt;org_apache_sling_jcr_api</title>
<path fill="none" stroke="yellow" d="M521.956,-378.74C427.255,-370.081 287.346,-355.491 156.455,-334.154"/>
<polygon fill="yellow" stroke="yellow" points="156.681,-330.644 146.245,-332.472 155.543,-337.551 156.681,-330.644"/>
</g>
<!-- org_apache_sling_api -->
<g id="node4" class="node"><title>org_apache_sling_api</title>
<polygon fill="green" stroke="black" points="506.5,-297 506.5,-333 617.5,-333 617.5,-297 506.5,-297"/>
<text text-anchor="middle" x="562" y="-322.1" font-family="Arial" font-size="8.00">Apache Sling API</text>
<polyline fill="none" stroke="black" points="506.5,-315 617.5,-315 "/>
<text text-anchor="middle" x="562" y="-304.1" font-family="Arial" font-size="8.00">org.apache.sling.api(2.4.2)</text>
</g>
<!-- org_liveSense_service_thumbnailGenerator&#45;&gt;org_apache_sling_api -->
<g id="edge3" class="edge"><title>org_liveSense_service_thumbnailGenerator&#45;&gt;org_apache_sling_api</title>
<path fill="none" stroke="yellow" d="M616.174,-370.937C607.286,-361.924 596.214,-350.696 586.401,-340.744"/>
<polygon fill="yellow" stroke="yellow" points="588.712,-338.104 579.198,-333.441 583.728,-343.019 588.712,-338.104"/>
</g>
<!-- org_apache_sling_commons_osgi -->
<g id="node5" class="node"><title>org_apache_sling_commons_osgi</title>
<polygon fill="green" stroke="black" points="792.5,-297 792.5,-333 945.5,-333 945.5,-297 792.5,-297"/>
<text text-anchor="middle" x="869" y="-322.1" font-family="Arial" font-size="8.00">Apache Sling Commons OSGi support</text>
<polyline fill="none" stroke="black" points="792.5,-315 945.5,-315 "/>
<text text-anchor="middle" x="869" y="-304.1" font-family="Arial" font-size="8.00">org.apache.sling.commons.osgi(2.2.0)</text>
</g>
<!-- org_liveSense_service_thumbnailGenerator&#45;&gt;org_apache_sling_commons_osgi -->
<g id="edge4" class="edge"><title>org_liveSense_service_thumbnailGenerator&#45;&gt;org_apache_sling_commons_osgi</title>
<path fill="none" stroke="yellow" d="M688.929,-370.937C723.191,-360.484 767.215,-347.053 803.156,-336.088"/>
<polygon fill="yellow" stroke="yellow" points="804.521,-339.331 813.064,-333.065 802.478,-332.636 804.521,-339.331"/>
</g>
<!-- org_apache_sling_event -->
<g id="node6" class="node"><title>org_apache_sling_event</title>
<polygon fill="green" stroke="black" points="368,-297 368,-333 488,-333 488,-297 368,-297"/>
<text text-anchor="middle" x="428" y="-322.1" font-family="Arial" font-size="8.00">Apache Sling Event Support</text>
<polyline fill="none" stroke="black" points="368,-315 488,-315 "/>
<text text-anchor="middle" x="428" y="-304.1" font-family="Arial" font-size="8.00">org.apache.sling.event(3.2.0)</text>
</g>
<!-- org_liveSense_service_thumbnailGenerator&#45;&gt;org_apache_sling_event -->
<g id="edge5" class="edge"><title>org_liveSense_service_thumbnailGenerator&#45;&gt;org_apache_sling_event</title>
<path fill="none" stroke="yellow" d="M584.418,-370.937C555.037,-360.618 517.394,-347.397 486.399,-336.511"/>
<polygon fill="yellow" stroke="yellow" points="487.183,-333.077 476.588,-333.065 484.863,-339.681 487.183,-333.077"/>
</g>
<!-- org_apache_felix_eventadmin -->
<g id="node7" class="node"><title>org_apache_felix_eventadmin</title>
<polygon fill="green" stroke="black" points="1155,-297 1155,-333 1295,-333 1295,-297 1155,-297"/>
<text text-anchor="middle" x="1225" y="-322.1" font-family="Arial" font-size="8.00">Apache Felix EventAdmin</text>
<polyline fill="none" stroke="black" points="1155,-315 1295,-315 "/>
<text text-anchor="middle" x="1225" y="-304.1" font-family="Arial" font-size="8.00">org.apache.felix.eventadmin(1.3.2)</text>
</g>
<!-- org_liveSense_service_thumbnailGenerator&#45;&gt;org_apache_felix_eventadmin -->
<g id="edge6" class="edge"><title>org_liveSense_service_thumbnailGenerator&#45;&gt;org_apache_felix_eventadmin</title>
<path fill="none" stroke="yellow" d="M744.11,-380.028C848.157,-371.679 1007.75,-356.6 1145,-334 1145.1,-333.983 1145.2,-333.967 1145.3,-333.95"/>
<polygon fill="yellow" stroke="yellow" points="1145.61,-337.45 1154.85,-332.268 1144.39,-330.556 1145.61,-337.45"/>
</g>
<!-- org_apache_felix_scr -->
<g id="node8" class="node"><title>org_apache_felix_scr</title>
<polygon fill="green" stroke="black" points="636,-297 636,-333 774,-333 774,-297 636,-297"/>
<text text-anchor="middle" x="705" y="-322.1" font-family="Arial" font-size="8.00">Apache Felix Declarative Services</text>
<polyline fill="none" stroke="black" points="636,-315 774,-315 "/>
<text text-anchor="middle" x="705" y="-304.1" font-family="Arial" font-size="8.00">org.apache.felix.scr(1.6.2)</text>
</g>
<!-- org_liveSense_service_thumbnailGenerator&#45;&gt;org_apache_felix_scr -->
<g id="edge7" class="edge"><title>org_liveSense_service_thumbnailGenerator&#45;&gt;org_apache_felix_scr</title>
<path fill="none" stroke="yellow" d="M650.063,-370.937C659.076,-361.924 670.304,-350.696 680.256,-340.744"/>
<polygon fill="yellow" stroke="yellow" points="682.963,-342.987 687.559,-333.441 678.013,-338.037 682.963,-342.987"/>
</g>
<!-- org_ops4j_pax_logging_pax_logging_api -->
<g id="node9" class="node"><title>org_ops4j_pax_logging_pax_logging_api</title>
<polygon fill="green" stroke="black" points="963.5,-297 963.5,-333 1136.5,-333 1136.5,-297 963.5,-297"/>
<text text-anchor="middle" x="1050" y="-322.1" font-family="Arial" font-size="8.00">OPS4J Pax Logging &#45; API</text>
<polyline fill="none" stroke="black" points="963.5,-315 1136.5,-315 "/>
<text text-anchor="middle" x="1050" y="-304.1" font-family="Arial" font-size="8.00">org.ops4j.pax.logging.pax&#45;logging&#45;api(1.7.0)</text>
</g>
<!-- org_liveSense_service_thumbnailGenerator&#45;&gt;org_ops4j_pax_logging_pax_logging_api -->
<g id="edge8" class="edge"><title>org_liveSense_service_thumbnailGenerator&#45;&gt;org_ops4j_pax_logging_pax_logging_api</title>
<path fill="none" stroke="yellow" d="M737.172,-370.981C797.444,-361.014 875.003,-347.984 953.351,-334.099"/>
<polygon fill="yellow" stroke="yellow" points="954.173,-337.508 963.407,-332.313 952.949,-330.616 954.173,-337.508"/>
</g>
<!-- org_apache_sling_jcr_api&#45;&gt;javax_jcr -->
<g id="edge9" class="edge"><title>org_apache_sling_jcr_api&#45;&gt;javax_jcr</title>
<path fill="none" stroke="green" d="M146.312,-315C148.655,-315 150.997,-315 153.339,-315"/>
<polygon fill="green" stroke="green" points="153.607,-318.5 163.607,-315 153.607,-311.5 153.607,-318.5"/>
</g>
<!-- org_apache_sling_api&#45;&gt;org_ops4j_pax_logging_pax_logging_api -->
<g id="edge10" class="edge"><title>org_apache_sling_api&#45;&gt;org_ops4j_pax_logging_pax_logging_api</title>
<path fill="none" stroke="green" d="M590.336,-333.051C603.646,-340.489 620.063,-348.238 636,-352 702.83,-367.776 877.316,-363.576 945,-352 963.155,-348.895 982.344,-342.974 999.281,-336.765"/>
<polygon fill="green" stroke="green" points="1000.86,-339.91 1008.97,-333.094 998.376,-333.365 1000.86,-339.91"/>
</g>
<!-- org_apache_geronimo_specs_geronimo_servlet_3_0_spec -->
<g id="node10" class="node"><title>org_apache_geronimo_specs_geronimo_servlet_3_0_spec</title>
<polygon fill="#3182bd" stroke="black" points="23,-149 23,-185 253,-185 253,-149 23,-149"/>
<text text-anchor="middle" x="138" y="-174.1" font-family="Arial" font-size="8.00">Servlet 3.0</text>
<polyline fill="none" stroke="black" points="23,-167 253,-167 "/>
<text text-anchor="middle" x="138" y="-156.1" font-family="Arial" font-size="8.00">org.apache.geronimo.specs.geronimo&#45;servlet_3.0_spec(1.0)</text>
</g>
<!-- org_apache_sling_api&#45;&gt;org_apache_geronimo_specs_geronimo_servlet_3_0_spec -->
<g id="edge11" class="edge"><title>org_apache_sling_api&#45;&gt;org_apache_geronimo_specs_geronimo_servlet_3_0_spec</title>
<path fill="none" stroke="green" d="M506.342,-298.542C503.183,-297.679 500.052,-296.826 497,-296 436.648,-279.656 419.549,-281.945 361,-260 325.265,-246.606 319.055,-237.084 284,-222 256.031,-209.965 224.403,-198.064 197.753,-188.511"/>
<polygon fill="green" stroke="green" points="198.77,-185.158 188.175,-185.101 196.422,-191.752 198.77,-185.158"/>
</g>
<!-- org_apache_sling_commons_osgi&#45;&gt;org_apache_felix_eventadmin -->
<g id="edge12" class="edge"><title>org_apache_sling_commons_osgi&#45;&gt;org_apache_felix_eventadmin</title>
<path fill="none" stroke="green" d="M905.957,-333.084C923.161,-340.53 944.169,-348.274 964,-352 1039.13,-366.114 1061.03,-366.962 1136,-352 1151.2,-348.966 1167.05,-343.284 1181.09,-337.267"/>
<polygon fill="green" stroke="green" points="1182.79,-340.345 1190.5,-333.077 1179.94,-333.951 1182.79,-340.345"/>
</g>
<!-- org_apache_sling_event&#45;&gt;org_apache_sling_api -->
<g id="edge13" class="edge"><title>org_apache_sling_event&#45;&gt;org_apache_sling_api</title>
<path fill="none" stroke="green" d="M488.195,-315C490.844,-315 493.493,-315 496.142,-315"/>
<polygon fill="green" stroke="green" points="496.358,-318.5 506.358,-315 496.358,-311.5 496.358,-318.5"/>
</g>
<!-- org_apache_sling_event&#45;&gt;org_apache_felix_eventadmin -->
<g id="edge18" class="edge"><title>org_apache_sling_event&#45;&gt;org_apache_felix_eventadmin</title>
<path fill="none" stroke="green" d="M457.987,-333.059C472.04,-340.499 489.331,-348.247 506,-352 574.29,-367.376 1067.35,-365.701 1136,-352 1151.2,-348.966 1167.05,-343.284 1181.09,-337.267"/>
<polygon fill="green" stroke="green" points="1182.79,-340.345 1190.5,-333.077 1179.94,-333.951 1182.79,-340.345"/>
</g>
<!-- org_apache_sling_event&#45;&gt;org_ops4j_pax_logging_pax_logging_api -->
<g id="edge19" class="edge"><title>org_apache_sling_event&#45;&gt;org_ops4j_pax_logging_pax_logging_api</title>
<path fill="none" stroke="green" d="M457.987,-333.059C472.04,-340.499 489.331,-348.247 506,-352 601.173,-373.429 848.841,-368.447 945,-352 963.155,-348.895 982.344,-342.974 999.281,-336.765"/>
<polygon fill="green" stroke="green" points="1000.86,-339.91 1008.97,-333.094 998.376,-333.365 1000.86,-339.91"/>
</g>
<!-- org_apache_sling_event&#45;&gt;org_apache_geronimo_specs_geronimo_servlet_3_0_spec -->
<g id="edge16" class="edge"><title>org_apache_sling_event&#45;&gt;org_apache_geronimo_specs_geronimo_servlet_3_0_spec</title>
<path fill="none" stroke="green" d="M367.877,-297.914C364.882,-297.239 361.911,-296.596 359,-296 306.167,-285.178 154.192,-300.865 119,-260 103.381,-241.863 111.914,-214.286 122.041,-194.053"/>
<polygon fill="green" stroke="green" points="125.224,-195.523 126.882,-185.059 119.061,-192.205 125.224,-195.523"/>
</g>
<!-- org_apache_sling_discovery_api -->
<g id="node11" class="node"><title>org_apache_sling_discovery_api</title>
<polygon fill="#3182bd" stroke="black" points="128.5,-223 128.5,-259 275.5,-259 275.5,-223 128.5,-223"/>
<text text-anchor="middle" x="202" y="-248.1" font-family="Arial" font-size="8.00">Apache Sling Discovery API</text>
<polyline fill="none" stroke="black" points="128.5,-241 275.5,-241 "/>
<text text-anchor="middle" x="202" y="-230.1" font-family="Arial" font-size="8.00">org.apache.sling.discovery.api(1.0.0)</text>
</g>
<!-- org_apache_sling_event&#45;&gt;org_apache_sling_discovery_api -->
<g id="edge14" class="edge"><title>org_apache_sling_event&#45;&gt;org_apache_sling_discovery_api</title>
<path fill="none" stroke="green" d="M374.441,-296.937C341.77,-286.529 299.833,-273.168 265.496,-262.229"/>
<polygon fill="green" stroke="green" points="266.156,-258.766 255.566,-259.065 264.031,-265.436 266.156,-258.766"/>
</g>
<!-- org_apache_sling_settings -->
<g id="node12" class="node"><title>org_apache_sling_settings</title>
<polygon fill="#3182bd" stroke="black" points="748,-223 748,-259 876,-259 876,-223 748,-223"/>
<text text-anchor="middle" x="812" y="-248.1" font-family="Arial" font-size="8.00">Apache Sling Settings</text>
<polyline fill="none" stroke="black" points="748,-241 876,-241 "/>
<text text-anchor="middle" x="812" y="-230.1" font-family="Arial" font-size="8.00">org.apache.sling.settings(1.3.0)</text>
</g>
<!-- org_apache_sling_event&#45;&gt;org_apache_sling_settings -->
<g id="edge15" class="edge"><title>org_apache_sling_event&#45;&gt;org_apache_sling_settings</title>
<path fill="none" stroke="green" d="M488.138,-297.989C491.129,-297.294 494.096,-296.627 497,-296 541.705,-286.356 659.453,-266.74 737.636,-253.995"/>
<polygon fill="green" stroke="green" points="738.609,-257.382 747.917,-252.321 737.485,-250.473 738.609,-257.382"/>
</g>
<!-- org_apache_sling_commons_threads -->
<g id="node13" class="node"><title>org_apache_sling_commons_threads</title>
<polygon fill="#3182bd" stroke="black" points="511,-149 511,-185 675,-185 675,-149 511,-149"/>
<text text-anchor="middle" x="593" y="-174.1" font-family="Arial" font-size="8.00">Apache Sling Thread Support</text>
<polyline fill="none" stroke="black" points="511,-167 675,-167 "/>
<text text-anchor="middle" x="593" y="-156.1" font-family="Arial" font-size="8.00">org.apache.sling.commons.threads(3.1.0)</text>
</g>
<!-- org_apache_sling_event&#45;&gt;org_apache_sling_commons_threads -->
<g id="edge17" class="edge"><title>org_apache_sling_event&#45;&gt;org_apache_sling_commons_threads</title>
<path fill="none" stroke="green" d="M395.81,-296.769C382.44,-287.752 368.35,-275.364 361,-260 353.712,-244.765 350.498,-235.227 361,-222 365.615,-216.188 438.021,-199.911 500.731,-186.735"/>
<polygon fill="green" stroke="green" points="501.629,-190.123 510.7,-184.649 500.195,-183.271 501.629,-190.123"/>
</g>
<!-- org_apache_sling_commons_scheduler -->
<g id="node14" class="node"><title>org_apache_sling_commons_scheduler</title>
<polygon fill="#3182bd" stroke="black" points="520,-223 520,-259 692,-259 692,-223 520,-223"/>
<text text-anchor="middle" x="606" y="-248.1" font-family="Arial" font-size="8.00">Apache Sling Scheduler Support</text>
<polyline fill="none" stroke="black" points="520,-241 692,-241 "/>
<text text-anchor="middle" x="606" y="-230.1" font-family="Arial" font-size="8.00">org.apache.sling.commons.scheduler(2.3.4)</text>
</g>
<!-- org_apache_sling_event&#45;&gt;org_apache_sling_commons_scheduler -->
<g id="edge20" class="edge"><title>org_apache_sling_event&#45;&gt;org_apache_sling_commons_scheduler</title>
<path fill="none" stroke="green" d="M470.184,-296.937C495.363,-286.752 527.532,-273.74 554.241,-262.936"/>
<polygon fill="green" stroke="green" points="555.853,-266.06 563.811,-259.065 553.228,-259.57 555.853,-266.06"/>
</g>
<!-- org_apache_felix_inventory -->
<g id="node15" class="node"><title>org_apache_felix_inventory</title>
<polygon fill="#3182bd" stroke="black" points="370.5,-223 370.5,-259 501.5,-259 501.5,-223 370.5,-223"/>
<text text-anchor="middle" x="436" y="-248.1" font-family="Arial" font-size="8.00">Apache Felix Inventory</text>
<polyline fill="none" stroke="black" points="370.5,-241 501.5,-241 "/>
<text text-anchor="middle" x="436" y="-230.1" font-family="Arial" font-size="8.00">org.apache.felix.inventory(1.0.0)</text>
</g>
<!-- org_apache_sling_event&#45;&gt;org_apache_felix_inventory -->
<g id="edge21" class="edge"><title>org_apache_sling_event&#45;&gt;org_apache_felix_inventory</title>
<path fill="none" stroke="green" d="M429.896,-296.937C430.809,-288.719 431.927,-278.66 432.955,-269.406"/>
<polygon fill="green" stroke="green" points="436.436,-269.766 434.062,-259.441 429.479,-268.993 436.436,-269.766"/>
</g>
<!-- org_apache_felix_eventadmin&#45;&gt;org_ops4j_pax_logging_pax_logging_api -->
<g id="edge35" class="edge"><title>org_apache_felix_eventadmin&#45;&gt;org_ops4j_pax_logging_pax_logging_api</title>
<path fill="none" stroke="#9ecae1" d="M1154.73,-328.337C1152.12,-328.5 1149.5,-328.626 1146.89,-328.715"/>
<polygon fill="#9ecae1" stroke="#9ecae1" points="1146.76,-325.217 1136.82,-328.874 1146.87,-332.216 1146.76,-325.217"/>
</g>
<!-- org_apache_felix_configadmin -->
<g id="node18" class="node"><title>org_apache_felix_configadmin</title>
<polygon fill="#deebf7" stroke="black" points="766,-75 766,-111 932,-111 932,-75 766,-75"/>
<text text-anchor="middle" x="849" y="-100.1" font-family="Arial" font-size="8.00">Apache Felix Configuration Admin Service</text>
<polyline fill="none" stroke="black" points="766,-93 932,-93 "/>
<text text-anchor="middle" x="849" y="-82.1" font-family="Arial" font-size="8.00">org.apache.felix.configadmin(1.6.0)</text>
</g>
<!-- org_apache_felix_eventadmin&#45;&gt;org_apache_felix_configadmin -->
<g id="edge36" class="edge"><title>org_apache_felix_eventadmin&#45;&gt;org_apache_felix_configadmin</title>
<path fill="none" stroke="#9ecae1" d="M1262.11,-296.909C1276.7,-288.109 1291.88,-275.851 1300,-260 1307.7,-244.968 1307.26,-237.251 1300,-222 1277.61,-174.926 1256.84,-168.701 1209,-148 1099.11,-100.449 1060.16,-131.385 942,-112 941.899,-111.983 941.797,-111.967 941.696,-111.95"/>
<polygon fill="#9ecae1" stroke="#9ecae1" points="942.554,-108.546 932.111,-110.33 941.388,-115.448 942.554,-108.546"/>
</g>
<!-- org_apache_felix_metatype -->
<g id="node19" class="node"><title>org_apache_felix_metatype</title>
<polygon fill="#deebf7" stroke="black" points="975.5,-223 975.5,-259 1106.5,-259 1106.5,-223 975.5,-223"/>
<text text-anchor="middle" x="1041" y="-248.1" font-family="Arial" font-size="8.00">Apache Felix Metatype Service</text>
<polyline fill="none" stroke="black" points="975.5,-241 1106.5,-241 "/>
<text text-anchor="middle" x="1041" y="-230.1" font-family="Arial" font-size="8.00">org.apache.felix.metatype(1.0.6)</text>
</g>
<!-- org_apache_felix_eventadmin&#45;&gt;org_apache_felix_metatype -->
<g id="edge37" class="edge"><title>org_apache_felix_eventadmin&#45;&gt;org_apache_felix_metatype</title>
<path fill="none" stroke="#9ecae1" d="M1181.39,-296.937C1155.25,-286.707 1121.82,-273.626 1094.14,-262.794"/>
<polygon fill="#9ecae1" stroke="#9ecae1" points="1095.2,-259.45 1084.61,-259.065 1092.65,-265.969 1095.2,-259.45"/>
</g>
<!-- org_apache_felix_scr&#45;&gt;org_ops4j_pax_logging_pax_logging_api -->
<g id="edge41" class="edge"><title>org_apache_felix_scr&#45;&gt;org_ops4j_pax_logging_pax_logging_api</title>
<path fill="none" stroke="#9ecae1" d="M739.095,-333.075C755.003,-340.519 774.479,-348.265 793,-352 859.222,-365.355 878.411,-363.389 945,-352 963.155,-348.895 982.344,-342.974 999.281,-336.765"/>
<polygon fill="#9ecae1" stroke="#9ecae1" points="1000.86,-339.91 1008.97,-333.094 998.376,-333.365 1000.86,-339.91"/>
</g>
<!-- org_apache_felix_scr&#45;&gt;org_apache_felix_configadmin -->
<g id="edge39" class="edge"><title>org_apache_felix_scr&#45;&gt;org_apache_felix_configadmin</title>
<path fill="none" stroke="#9ecae1" d="M774.007,-297.308C821.638,-285.12 877.675,-269.181 885,-260 916.075,-221.05 905.896,-195.224 890,-148 886.471,-137.517 880.009,-127.454 873.242,-118.915"/>
<polygon fill="#9ecae1" stroke="#9ecae1" points="875.875,-116.609 866.747,-111.232 870.53,-121.128 875.875,-116.609"/>
</g>
<!-- org_apache_felix_scr&#45;&gt;org_apache_felix_metatype -->
<g id="edge40" class="edge"><title>org_apache_felix_scr&#45;&gt;org_apache_felix_metatype</title>
<path fill="none" stroke="#9ecae1" d="M774.347,-298.13C777.609,-297.405 780.84,-296.692 784,-296 844.96,-282.652 914.202,-268.14 965.443,-257.525"/>
<polygon fill="#9ecae1" stroke="#9ecae1" points="966.36,-260.91 975.443,-255.456 964.942,-254.055 966.36,-260.91"/>
</g>
<!-- org_apache_karaf_shell_console -->
<g id="node20" class="node"><title>org_apache_karaf_shell_console</title>
<polygon fill="#deebf7" stroke="black" points="1125,-223 1125,-259 1291,-259 1291,-223 1125,-223"/>
<text text-anchor="middle" x="1208" y="-248.1" font-family="Arial" font-size="8.00">Apache Karaf :: Shell :: Console</text>
<polyline fill="none" stroke="black" points="1125,-241 1291,-241 "/>
<text text-anchor="middle" x="1208" y="-230.1" font-family="Arial" font-size="8.00">org.apache.karaf.shell.console(3.0.0.RC1)</text>
</g>
<!-- org_apache_felix_scr&#45;&gt;org_apache_karaf_shell_console -->
<g id="edge38" class="edge"><title>org_apache_felix_scr&#45;&gt;org_apache_karaf_shell_console</title>
<path fill="none" stroke="#9ecae1" d="M774.272,-297.74C777.554,-297.119 780.809,-296.535 784,-296 929.94,-271.522 968.678,-282.079 1115,-260 1115.1,-259.985 1115.2,-259.969 1115.31,-259.954"/>
<polygon fill="#9ecae1" stroke="#9ecae1" points="1115.58,-263.455 1124.91,-258.436 1114.48,-256.541 1115.58,-263.455"/>
</g>
<!-- org_ops4j_pax_logging_pax_logging_api&#45;&gt;org_apache_felix_eventadmin -->
<g id="edge22" class="edge"><title>org_ops4j_pax_logging_pax_logging_api&#45;&gt;org_apache_felix_eventadmin</title>
<path fill="none" stroke="#3182bd" d="M1136.82,-301.126C1139.43,-301.119 1142.04,-301.15 1144.65,-301.218"/>
<polygon fill="#3182bd" stroke="#3182bd" points="1144.58,-304.718 1154.73,-301.663 1144.89,-297.725 1144.58,-304.718"/>
</g>
<!-- org_apache_sling_settings&#45;&gt;org_ops4j_pax_logging_pax_logging_api -->
<g id="edge23" class="edge"><title>org_apache_sling_settings&#45;&gt;org_ops4j_pax_logging_pax_logging_api</title>
<path fill="none" stroke="#3182bd" d="M868.41,-259.065C902.964,-269.519 947.361,-282.949 983.606,-293.914"/>
<polygon fill="#3182bd" stroke="#3182bd" points="983.012,-297.391 993.597,-296.937 985.039,-290.691 983.012,-297.391"/>
</g>
<!-- org_apache_sling_launchpad_api -->
<g id="node16" class="node"><title>org_apache_sling_launchpad_api</title>
<polygon fill="#9ecae1" stroke="black" points="731,-149 731,-185 881,-185 881,-149 731,-149"/>
<text text-anchor="middle" x="806" y="-174.1" font-family="Arial" font-size="8.00">Apache Sling Launchpad API</text>
<polyline fill="none" stroke="black" points="731,-167 881,-167 "/>
<text text-anchor="middle" x="806" y="-156.1" font-family="Arial" font-size="8.00">org.apache.sling.launchpad.api(1.1.0)</text>
</g>
<!-- org_apache_sling_settings&#45;&gt;org_apache_sling_launchpad_api -->
<g id="edge25" class="edge"><title>org_apache_sling_settings&#45;&gt;org_apache_sling_launchpad_api</title>
<path fill="none" stroke="#3182bd" d="M810.578,-222.937C809.901,-214.807 809.073,-204.876 808.309,-195.705"/>
<polygon fill="#3182bd" stroke="#3182bd" points="811.772,-195.115 807.453,-185.441 804.796,-195.697 811.772,-195.115"/>
</g>
<!-- org_apache_sling_settings&#45;&gt;org_apache_felix_configadmin -->
<g id="edge24" class="edge"><title>org_apache_sling_settings&#45;&gt;org_apache_felix_configadmin</title>
<path fill="none" stroke="#3182bd" d="M764.367,-222.936C747.941,-214.495 731.337,-202.491 722,-186 713.679,-171.303 712.683,-162.086 722,-148 731.502,-133.634 745.683,-123.078 761.165,-115.325"/>
<polygon fill="#3182bd" stroke="#3182bd" points="762.782,-118.434 770.406,-111.077 759.858,-112.074 762.782,-118.434"/>
</g>
<!-- org_apache_sling_commons_threads&#45;&gt;org_ops4j_pax_logging_pax_logging_api -->
<g id="edge26" class="edge"><title>org_apache_sling_commons_threads&#45;&gt;org_ops4j_pax_logging_pax_logging_api</title>
<path fill="none" stroke="#3182bd" d="M634.777,-185.074C655.587,-194.507 680.593,-207.291 701,-222 720.376,-235.966 717.767,-249.063 739,-260 822.355,-302.936 856.392,-280.63 953.493,-296.017"/>
<polygon fill="#3182bd" stroke="#3182bd" points="952.965,-299.478 963.407,-297.684 954.126,-292.574 952.965,-299.478"/>
</g>
<!-- org_apache_sling_commons_threads&#45;&gt;org_apache_felix_configadmin -->
<g id="edge27" class="edge"><title>org_apache_sling_commons_threads&#45;&gt;org_apache_felix_configadmin</title>
<path fill="none" stroke="#3182bd" d="M653.668,-148.937C691.152,-138.395 739.406,-124.823 778.574,-113.807"/>
<polygon fill="#3182bd" stroke="#3182bd" points="779.645,-117.142 788.324,-111.065 777.75,-110.403 779.645,-117.142"/>
</g>
<!-- org_apache_sling_commons_scheduler&#45;&gt;org_apache_felix_scr -->
<g id="edge31" class="edge"><title>org_apache_sling_commons_scheduler&#45;&gt;org_apache_felix_scr</title>
<path fill="none" stroke="#3182bd" d="M629.636,-259.19C642.64,-268.648 658.956,-280.514 673.078,-290.784"/>
<polygon fill="#3182bd" stroke="#3182bd" points="671.392,-293.886 681.538,-296.937 675.51,-288.225 671.392,-293.886"/>
</g>
<!-- org_apache_sling_commons_scheduler&#45;&gt;org_ops4j_pax_logging_pax_logging_api -->
<g id="edge32" class="edge"><title>org_apache_sling_commons_scheduler&#45;&gt;org_ops4j_pax_logging_pax_logging_api</title>
<path fill="none" stroke="#3182bd" d="M692.153,-257.699C696.834,-258.492 701.473,-259.264 706,-260 812.821,-277.362 842.468,-277.727 953.502,-295.957"/>
<polygon fill="#3182bd" stroke="#3182bd" points="952.985,-299.418 963.422,-297.597 954.127,-292.512 952.985,-299.418"/>
</g>
<!-- org_apache_sling_commons_scheduler&#45;&gt;org_apache_geronimo_specs_geronimo_servlet_3_0_spec -->
<g id="edge29" class="edge"><title>org_apache_sling_commons_scheduler&#45;&gt;org_apache_geronimo_specs_geronimo_servlet_3_0_spec</title>
<path fill="none" stroke="#3182bd" d="M519.938,-223.686C516.584,-223.106 513.262,-222.542 510,-222 509.607,-221.935 371.118,-201.833 263.25,-186.178"/>
<polygon fill="#3182bd" stroke="#3182bd" points="263.642,-182.698 253.243,-184.725 262.636,-189.625 263.642,-182.698"/>
</g>
<!-- org_apache_sling_commons_scheduler&#45;&gt;org_apache_sling_commons_threads -->
<g id="edge30" class="edge"><title>org_apache_sling_commons_scheduler&#45;&gt;org_apache_sling_commons_threads</title>
<path fill="none" stroke="#3182bd" d="M602.919,-222.937C601.435,-214.719 599.619,-204.66 597.948,-195.406"/>
<polygon fill="#3182bd" stroke="#3182bd" points="601.37,-194.66 596.149,-185.441 594.482,-195.903 601.37,-194.66"/>
</g>
<!-- org_apache_geronimo_specs_geronimo_jta_1_1_spec -->
<g id="node17" class="node"><title>org_apache_geronimo_specs_geronimo_jta_1_1_spec</title>
<polygon fill="#9ecae1" stroke="black" points="271,-149 271,-185 493,-185 493,-149 271,-149"/>
<text text-anchor="middle" x="382" y="-174.1" font-family="Arial" font-size="8.00">geronimo&#45;jta_1.1_spec</text>
<polyline fill="none" stroke="black" points="271,-167 493,-167 "/>
<text text-anchor="middle" x="382" y="-156.1" font-family="Arial" font-size="8.00">org.apache.geronimo.specs.geronimo&#45;jta_1.1_spec(1.1.1)</text>
</g>
<!-- org_apache_sling_commons_scheduler&#45;&gt;org_apache_geronimo_specs_geronimo_jta_1_1_spec -->
<g id="edge28" class="edge"><title>org_apache_sling_commons_scheduler&#45;&gt;org_apache_geronimo_specs_geronimo_jta_1_1_spec</title>
<path fill="none" stroke="#3182bd" d="M552.915,-222.937C520.534,-212.529 478.967,-199.168 444.934,-188.229"/>
<polygon fill="#3182bd" stroke="#3182bd" points="445.683,-184.793 435.092,-185.065 443.541,-191.457 445.683,-184.793"/>
</g>
<!-- org_apache_felix_inventory&#45;&gt;org_ops4j_pax_logging_pax_logging_api -->
<g id="edge33" class="edge"><title>org_apache_felix_inventory&#45;&gt;org_ops4j_pax_logging_pax_logging_api</title>
<path fill="none" stroke="#3182bd" d="M501.734,-258.384C504.858,-258.971 507.959,-259.514 511,-260 702.829,-290.626 756.442,-270.458 953.363,-296.011"/>
<polygon fill="#3182bd" stroke="#3182bd" points="953.088,-299.505 963.46,-297.344 954.004,-292.565 953.088,-299.505"/>
</g>
<!-- org_apache_felix_inventory&#45;&gt;org_apache_geronimo_specs_geronimo_servlet_3_0_spec -->
<g id="edge34" class="edge"><title>org_apache_felix_inventory&#45;&gt;org_apache_geronimo_specs_geronimo_servlet_3_0_spec</title>
<path fill="none" stroke="#3182bd" d="M370.234,-224.11C325.508,-213.304 266.051,-198.938 218.494,-187.448"/>
<polygon fill="#3182bd" stroke="#3182bd" points="219.079,-183.989 208.537,-185.042 217.435,-190.793 219.079,-183.989"/>
</g>
<!-- org_apache_felix_configadmin&#45;&gt;org_ops4j_pax_logging_pax_logging_api -->
<g id="edge42" class="edge"><title>org_apache_felix_configadmin&#45;&gt;org_ops4j_pax_logging_pax_logging_api</title>
<path fill="none" stroke="#deebf7" d="M871.64,-111.06C883.732,-120.939 898.289,-134.139 909,-148 943.276,-192.356 929.371,-218.45 967,-260 978.17,-272.334 992.76,-283.061 1006.59,-291.633"/>
<polygon fill="#deebf7" stroke="#deebf7" points="1005.13,-294.842 1015.52,-296.95 1008.71,-288.827 1005.13,-294.842"/>
</g>
<!-- org_apache_felix_metatype&#45;&gt;org_ops4j_pax_logging_pax_logging_api -->
<g id="edge43" class="edge"><title>org_apache_felix_metatype&#45;&gt;org_ops4j_pax_logging_pax_logging_api</title>
<path fill="none" stroke="#deebf7" d="M1043.18,-259.441C1044.2,-267.625 1045.45,-277.572 1046.59,-286.719"/>
<polygon fill="#deebf7" stroke="#deebf7" points="1043.15,-287.448 1047.87,-296.937 1050.1,-286.58 1043.15,-287.448"/>
</g>
<!-- org_apache_karaf_shell_console&#45;&gt;org_apache_felix_eventadmin -->
<g id="edge46" class="edge"><title>org_apache_karaf_shell_console&#45;&gt;org_apache_felix_eventadmin</title>
<path fill="none" stroke="#deebf7" d="M1212.12,-259.441C1214.07,-267.714 1216.45,-277.788 1218.63,-287.017"/>
<polygon fill="#deebf7" stroke="#deebf7" points="1215.27,-288.009 1220.97,-296.937 1222.08,-286.4 1215.27,-288.009"/>
</g>
<!-- org_apache_karaf_shell_console&#45;&gt;org_ops4j_pax_logging_pax_logging_api -->
<g id="edge49" class="edge"><title>org_apache_karaf_shell_console&#45;&gt;org_ops4j_pax_logging_pax_logging_api</title>
<path fill="none" stroke="#deebf7" d="M1170.55,-259.065C1148.4,-269.161 1120.15,-282.035 1096.56,-292.781"/>
<polygon fill="#deebf7" stroke="#deebf7" points="1095.09,-289.605 1087.44,-296.937 1097.99,-295.975 1095.09,-289.605"/>
</g>
<!-- org_apache_aries_blueprint_api -->
<g id="node21" class="node"><title>org_apache_aries_blueprint_api</title>
<polygon fill="#bdbdbd" stroke="black" points="950.5,-75 950.5,-111 1095.5,-111 1095.5,-75 950.5,-75"/>
<text text-anchor="middle" x="1023" y="-100.1" font-family="Arial" font-size="8.00">Apache Aries Blueprint API</text>
<polyline fill="none" stroke="black" points="950.5,-93 1095.5,-93 "/>
<text text-anchor="middle" x="1023" y="-82.1" font-family="Arial" font-size="8.00">org.apache.aries.blueprint.api(1.0.0)</text>
</g>
<!-- org_apache_karaf_shell_console&#45;&gt;org_apache_aries_blueprint_api -->
<g id="edge44" class="edge"><title>org_apache_karaf_shell_console&#45;&gt;org_apache_aries_blueprint_api</title>
<path fill="none" stroke="#deebf7" d="M1213.88,-222.825C1219.58,-202.766 1225.21,-169.586 1209,-148 1202.26,-139.026 1151.97,-124.726 1105.38,-113.095"/>
<polygon fill="#deebf7" stroke="#deebf7" points="1106.06,-109.658 1095.51,-110.657 1104.38,-116.454 1106.06,-109.658"/>
</g>
<!-- jline -->
<g id="node22" class="node"><title>jline</title>
<polygon fill="#bdbdbd" stroke="black" points="975,-149 975,-185 1029,-185 1029,-149 975,-149"/>
<text text-anchor="middle" x="1002" y="-174.1" font-family="Arial" font-size="8.00">JLine</text>
<polyline fill="none" stroke="black" points="975,-167 1029,-167 "/>
<text text-anchor="middle" x="1002" y="-156.1" font-family="Arial" font-size="8.00">jline(2.9.0)</text>
</g>
<!-- org_apache_karaf_shell_console&#45;&gt;jline -->
<g id="edge45" class="edge"><title>org_apache_karaf_shell_console&#45;&gt;jline</title>
<path fill="none" stroke="#deebf7" d="M1147.42,-222.945C1114.88,-213.211 1074.31,-200.146 1039,-186 1038.9,-185.96 1038.8,-185.92 1038.7,-185.88"/>
<polygon fill="#deebf7" stroke="#deebf7" points="1039.85,-182.564 1029.28,-181.814 1037.08,-188.99 1039.85,-182.564"/>
</g>
<!-- org_apache_aries_blueprint_core -->
<g id="node23" class="node"><title>org_apache_aries_blueprint_core</title>
<polygon fill="#bdbdbd" stroke="black" points="1295,-149 1295,-185 1445,-185 1445,-149 1295,-149"/>
<text text-anchor="middle" x="1370" y="-174.1" font-family="Arial" font-size="8.00">Apache Aries Blueprint Core</text>
<polyline fill="none" stroke="black" points="1295,-167 1445,-167 "/>
<text text-anchor="middle" x="1370" y="-156.1" font-family="Arial" font-size="8.00">org.apache.aries.blueprint.core(1.1.0)</text>
</g>
<!-- org_apache_karaf_shell_console&#45;&gt;org_apache_aries_blueprint_core -->
<g id="edge47" class="edge"><title>org_apache_karaf_shell_console&#45;&gt;org_apache_aries_blueprint_core</title>
<path fill="none" stroke="#deebf7" d="M1246.39,-222.937C1269.11,-212.841 1298.07,-199.968 1322.25,-189.221"/>
<polygon fill="#deebf7" stroke="#deebf7" points="1323.89,-192.325 1331.6,-185.065 1321.04,-185.928 1323.89,-192.325"/>
</g>
<!-- org_apache_sshd_core -->
<g id="node24" class="node"><title>org_apache_sshd_core</title>
<polygon fill="#bdbdbd" stroke="black" points="1501.5,-149 1501.5,-185 1618.5,-185 1618.5,-149 1501.5,-149"/>
<text text-anchor="middle" x="1560" y="-174.1" font-family="Arial" font-size="8.00">Apache Mina SSHD :: Core</text>
<polyline fill="none" stroke="black" points="1501.5,-167 1618.5,-167 "/>
<text text-anchor="middle" x="1560" y="-156.1" font-family="Arial" font-size="8.00">org.apache.sshd.core(0.8.0)</text>
</g>
<!-- org_apache_karaf_shell_console&#45;&gt;org_apache_sshd_core -->
<g id="edge48" class="edge"><title>org_apache_karaf_shell_console&#45;&gt;org_apache_sshd_core</title>
<path fill="none" stroke="#deebf7" d="M1291.42,-222.937C1352.41,-210.462 1434.13,-193.746 1491.35,-182.041"/>
<polygon fill="#deebf7" stroke="#deebf7" points="1492.29,-185.422 1501.39,-179.989 1490.89,-178.564 1492.29,-185.422"/>
</g>
<!-- org_apache_karaf_jaas_boot -->
<g id="node25" class="node"><title>org_apache_karaf_jaas_boot</title>
<polygon fill="#bdbdbd" stroke="black" points="1047.5,-149 1047.5,-185 1200.5,-185 1200.5,-149 1047.5,-149"/>
<text text-anchor="middle" x="1124" y="-174.1" font-family="Arial" font-size="8.00">Apache Karaf :: JAAS :: Boot</text>
<polyline fill="none" stroke="black" points="1047.5,-167 1200.5,-167 "/>
<text text-anchor="middle" x="1124" y="-156.1" font-family="Arial" font-size="8.00">org.apache.karaf.jaas.boot(3.0.0.RC1)</text>
</g>
<!-- org_apache_karaf_shell_console&#45;&gt;org_apache_karaf_jaas_boot -->
<g id="edge50" class="edge"><title>org_apache_karaf_shell_console&#45;&gt;org_apache_karaf_jaas_boot</title>
<path fill="none" stroke="#deebf7" d="M1188.09,-222.937C1177.29,-213.679 1163.77,-202.086 1151.93,-191.938"/>
<polygon fill="#deebf7" stroke="#deebf7" points="1153.93,-189.041 1144.06,-185.19 1149.37,-194.355 1153.93,-189.041"/>
</g>
<!-- org_apache_aries_blueprint_core&#45;&gt;org_apache_felix_eventadmin -->
<g id="edge53" class="edge"><title>org_apache_aries_blueprint_core&#45;&gt;org_apache_felix_eventadmin</title>
<path fill="none" stroke="#bdbdbd" d="M1377.7,-185.345C1385.25,-205.262 1393.56,-238.012 1378,-260 1361.12,-283.861 1332.78,-297.25 1305.06,-304.737"/>
<polygon fill="#bdbdbd" stroke="#bdbdbd" points="1304.16,-301.352 1295.29,-307.147 1305.84,-308.149 1304.16,-301.352"/>
</g>
<!-- org_apache_aries_blueprint_core&#45;&gt;org_ops4j_pax_logging_pax_logging_api -->
<g id="edge54" class="edge"><title>org_apache_aries_blueprint_core&#45;&gt;org_ops4j_pax_logging_pax_logging_api</title>
<path fill="none" stroke="#bdbdbd" d="M1361.74,-185.231C1350.71,-206.311 1329.13,-241.472 1300,-260 1293.18,-264.337 1213.26,-281.207 1145.59,-294.951"/>
<polygon fill="#bdbdbd" stroke="#bdbdbd" points="1144.81,-291.538 1135.71,-296.954 1146.2,-298.398 1144.81,-291.538"/>
</g>
<!-- org_apache_aries_blueprint_core&#45;&gt;org_apache_aries_blueprint_api -->
<g id="edge52" class="edge"><title>org_apache_aries_blueprint_core&#45;&gt;org_apache_aries_blueprint_api</title>
<path fill="none" stroke="#bdbdbd" d="M1294.91,-150.759C1230.23,-137.621 1142.68,-119.815 1105.92,-112.163"/>
<polygon fill="#bdbdbd" stroke="#bdbdbd" points="1106.37,-108.682 1095.87,-110.054 1104.93,-115.533 1106.37,-108.682"/>
</g>
<!-- org_apache_aries_proxy_api -->
<g id="node26" class="node"><title>org_apache_aries_proxy_api</title>
<polygon fill="#bdbdbd" stroke="black" points="1312,-75 1312,-111 1446,-111 1446,-75 1312,-75"/>
<text text-anchor="middle" x="1379" y="-100.1" font-family="Arial" font-size="8.00">Apache Aries Proxy API</text>
<polyline fill="none" stroke="black" points="1312,-93 1446,-93 "/>
<text text-anchor="middle" x="1379" y="-82.1" font-family="Arial" font-size="8.00">org.apache.aries.proxy.api(1.0.0)</text>
</g>
<!-- org_apache_aries_blueprint_core&#45;&gt;org_apache_aries_proxy_api -->
<g id="edge51" class="edge"><title>org_apache_aries_blueprint_core&#45;&gt;org_apache_aries_proxy_api</title>
<path fill="none" stroke="#bdbdbd" d="M1372.13,-148.937C1373.16,-140.719 1374.42,-130.66 1375.57,-121.406"/>
<polygon fill="#bdbdbd" stroke="#bdbdbd" points="1379.05,-121.798 1376.82,-111.441 1372.11,-120.929 1379.05,-121.798"/>
</g>
<!-- org_apache_aries_util -->
<g id="node27" class="node"><title>org_apache_aries_util</title>
<polygon fill="#bdbdbd" stroke="black" points="1323,-1 1323,-37 1435,-37 1435,-1 1323,-1"/>
<text text-anchor="middle" x="1379" y="-26.1" font-family="Arial" font-size="8.00">Apache Aries Util</text>
<polyline fill="none" stroke="black" points="1323,-19 1435,-19 "/>
<text text-anchor="middle" x="1379" y="-8.1" font-family="Arial" font-size="8.00">org.apache.aries.util(1.1.0)</text>
</g>
<!-- org_apache_aries_blueprint_core&#45;&gt;org_apache_aries_util -->
<g id="edge55" class="edge"><title>org_apache_aries_blueprint_core&#45;&gt;org_apache_aries_util</title>
<path fill="none" stroke="#bdbdbd" d="M1337.81,-148.769C1324.44,-139.752 1310.35,-127.364 1303,-112 1295.71,-96.7647 1295.25,-89.0074 1303,-74 1309.57,-61.269 1320.68,-50.886 1332.41,-42.7493"/>
<polygon fill="#bdbdbd" stroke="#bdbdbd" points="1334.49,-45.5747 1341.01,-37.2201 1330.7,-39.6881 1334.49,-45.5747"/>
</g>
<!-- org_apache_aries_quiesce_api -->
<g id="node28" class="node"><title>org_apache_aries_quiesce_api</title>
<polygon fill="#bdbdbd" stroke="black" points="1114,-75 1114,-111 1256,-111 1256,-75 1114,-75"/>
<text text-anchor="middle" x="1185" y="-100.1" font-family="Arial" font-size="8.00">Apache Aries Quiesce API</text>
<polyline fill="none" stroke="black" points="1114,-93 1256,-93 "/>
<text text-anchor="middle" x="1185" y="-82.1" font-family="Arial" font-size="8.00">org.apache.aries.quiesce.api(1.0.0)</text>
</g>
<!-- org_apache_aries_blueprint_core&#45;&gt;org_apache_aries_quiesce_api -->
<g id="edge56" class="edge"><title>org_apache_aries_blueprint_core&#45;&gt;org_apache_aries_quiesce_api</title>
<path fill="none" stroke="#bdbdbd" d="M1326.16,-148.937C1299.87,-138.707 1266.26,-125.626 1238.43,-114.794"/>
<polygon fill="#bdbdbd" stroke="#bdbdbd" points="1239.44,-111.43 1228.85,-111.065 1236.9,-117.954 1239.44,-111.43"/>
</g>
<!-- org_apache_sshd_core&#45;&gt;org_ops4j_pax_logging_pax_logging_api -->
<g id="edge57" class="edge"><title>org_apache_sshd_core&#45;&gt;org_ops4j_pax_logging_pax_logging_api</title>
<path fill="none" stroke="#bdbdbd" d="M1551.9,-185.01C1540.64,-206.55 1518.09,-242.91 1487,-260 1422.77,-295.308 1236.35,-285.794 1146.73,-296.117"/>
<polygon fill="#bdbdbd" stroke="#bdbdbd" points="1146.02,-292.68 1136.55,-297.441 1146.92,-299.622 1146.02,-292.68"/>
</g>
<!-- org_apache_mina_core -->
<g id="node29" class="node"><title>org_apache_mina_core</title>
<polygon fill="#bdbdbd" stroke="black" points="1588.5,-75 1588.5,-111 1705.5,-111 1705.5,-75 1588.5,-75"/>
<text text-anchor="middle" x="1647" y="-100.1" font-family="Arial" font-size="8.00">Apache MINA Core</text>
<polyline fill="none" stroke="black" points="1588.5,-93 1705.5,-93 "/>
<text text-anchor="middle" x="1647" y="-82.1" font-family="Arial" font-size="8.00">org.apache.mina.core(2.0.7)</text>
</g>
<!-- org_apache_sshd_core&#45;&gt;org_apache_mina_core -->
<g id="edge58" class="edge"><title>org_apache_sshd_core&#45;&gt;org_apache_mina_core</title>
<path fill="none" stroke="#bdbdbd" d="M1580.62,-148.937C1591.91,-139.59 1606.08,-127.863 1618.43,-117.646"/>
<polygon fill="#bdbdbd" stroke="#bdbdbd" points="1620.76,-120.262 1626.23,-111.19 1616.29,-114.869 1620.76,-120.262"/>
</g>
<!-- bcprov -->
<g id="node30" class="node"><title>bcprov</title>
<polygon fill="#bdbdbd" stroke="black" points="1509.5,-75 1509.5,-111 1570.5,-111 1570.5,-75 1509.5,-75"/>
<text text-anchor="middle" x="1540" y="-100.1" font-family="Arial" font-size="8.00">bcprov</text>
<polyline fill="none" stroke="black" points="1509.5,-93 1570.5,-93 "/>
<text text-anchor="middle" x="1540" y="-82.1" font-family="Arial" font-size="8.00">bcprov(1.46)</text>
</g>
<!-- org_apache_sshd_core&#45;&gt;bcprov -->
<g id="edge59" class="edge"><title>org_apache_sshd_core&#45;&gt;bcprov</title>
<path fill="none" stroke="#bdbdbd" d="M1555.26,-148.937C1552.95,-140.63 1550.12,-130.444 1547.53,-121.108"/>
<polygon fill="#bdbdbd" stroke="#bdbdbd" points="1550.89,-120.139 1544.84,-111.441 1544.15,-122.013 1550.89,-120.139"/>
</g>
<!-- org_apache_aries_proxy_api&#45;&gt;org_apache_aries_util -->
<g id="edge60" class="edge"><title>org_apache_aries_proxy_api&#45;&gt;org_apache_aries_util</title>
<path fill="none" stroke="#bdbdbd" d="M1379,-74.937C1379,-66.8072 1379,-56.8761 1379,-47.7047"/>
<polygon fill="#bdbdbd" stroke="#bdbdbd" points="1382.5,-47.4406 1379,-37.4407 1375.5,-47.4407 1382.5,-47.4406"/>
</g>
<!-- org_apache_aries_util&#45;&gt;org_ops4j_pax_logging_pax_logging_api -->
<g id="edge63" class="edge"><title>org_apache_aries_util&#45;&gt;org_ops4j_pax_logging_pax_logging_api</title>
<path fill="none" stroke="#bdbdbd" d="M1416.99,-37.2201C1431.65,-45.9841 1446.83,-58.179 1455,-74 1477.83,-118.234 1478.64,-142.744 1454,-186 1422.8,-240.777 1391.8,-237.28 1333,-260 1330.75,-260.871 1227.96,-280.393 1146.91,-295.716"/>
<polygon fill="#bdbdbd" stroke="#bdbdbd" points="1145.81,-292.361 1136.64,-297.657 1147.11,-299.239 1145.81,-292.361"/>
</g>
<!-- org_apache_mina_core&#45;&gt;org_ops4j_pax_logging_pax_logging_api -->
<g id="edge61" class="edge"><title>org_apache_mina_core&#45;&gt;org_ops4j_pax_logging_pax_logging_api</title>
<path fill="none" stroke="#bdbdbd" d="M1646.95,-111.05C1646.12,-130.691 1642.28,-163.181 1627,-186 1594.84,-234.049 1574.3,-240.146 1520,-260 1366.23,-316.221 1313.41,-274.299 1146.65,-296.028"/>
<polygon fill="#bdbdbd" stroke="#bdbdbd" points="1145.98,-292.587 1136.55,-297.404 1146.93,-299.523 1145.98,-292.587"/>
</g>
<!-- org_apache_servicemix_bundles_junit -->
<g id="node31" class="node"><title>org_apache_servicemix_bundles_junit</title>
<polygon fill="#bdbdbd" stroke="black" points="1453.5,-1 1453.5,-37 1626.5,-37 1626.5,-1 1453.5,-1"/>
<text text-anchor="middle" x="1540" y="-26.1" font-family="Arial" font-size="8.00">Apache ServiceMix :: Bundles :: junit</text>
<polyline fill="none" stroke="black" points="1453.5,-19 1626.5,-19 "/>
<text text-anchor="middle" x="1540" y="-8.1" font-family="Arial" font-size="8.00">org.apache.servicemix.bundles.junit(3.8.2.4)</text>
</g>
<!-- bcprov&#45;&gt;org_apache_servicemix_bundles_junit -->
<g id="edge62" class="edge"><title>bcprov&#45;&gt;org_apache_servicemix_bundles_junit</title>
<path fill="none" stroke="#bdbdbd" d="M1540,-74.937C1540,-66.8072 1540,-56.8761 1540,-47.7047"/>
<polygon fill="#bdbdbd" stroke="#bdbdbd" points="1543.5,-47.4406 1540,-37.4407 1536.5,-47.4407 1543.5,-47.4406"/>
</g>
</g>
</svg>
